<svg width="173" height="9" viewBox="0 0 173 9" fill="none" xmlns="http://www.w3.org/2000/svg">
<path fill-rule="evenodd" clip-rule="evenodd" d="M28.0505 6.12089C27.1885 6.27037 28.0505 6.375 32.0731 6.375H45.4818C48.9297 6.375 50.4621 6.28033 51.3241 6.1757C51.3241 6.1757 58.1242 5.30873 67.7976 4.75068C70.9582 4.58625 72.2991 4.53643 74.0231 4.53643C74.8851 4.53643 76.1302 4.58625 76.1302 4.73573V6.12089C76.1302 6.30026 77.0879 6.375 79.9612 6.375H101.032C103.139 6.375 104.48 6.2903 104.48 6.21556C104.48 6.04615 99.6911 6.00629 99.1164 5.53793V4.51152C99.1164 4.2873 99.8827 4.24744 101.607 4.24744C106.108 4.24744 117.218 5.11441 123.731 6.11092C125.072 6.29528 126.317 6.375 129.765 6.375H143.173C147.005 6.375 147.771 6.28033 147.771 6.1757C147.771 5.99134 143.269 5.07455 126.604 3.86378C115.494 3.03667 99.8827 2.58824 85.7078 2.58824C77.1837 2.58824 76.1302 2.68789 76.1302 2.8573V3.48511C76.1302 3.68441 75.3639 3.72427 72.5864 3.72427C70.5751 3.72427 67.223 3.67444 59.2735 3.27584C50.1748 2.80249 48.6424 2.58824 43.5662 2.58824H30.1576C26.3265 2.58824 24.411 2.68789 25.5603 2.88221C26.8054 3.07653 31.1153 3.36054 36.8619 3.69936C40.0225 3.89368 44.7156 4.09796 46.0564 4.2026C48.0677 4.33713 47.4931 4.39692 46.0564 4.51152C46.0564 4.5165 29.6787 5.71232 28.0505 6.12089V6.12089Z" fill="#030A1B"/>
</svg>
