<svg width="146" height="80" viewBox="0 0 146 80" fill="none" xmlns="http://www.w3.org/2000/svg">
<path d="M8.48 56.16L1.6 56.2V52.4L8.48 52.44V45.28H12.44V52.44L19.44 52.48V56.16H12.44V63.72H8.48V56.16ZM43.8425 67.64C42.7492 67.64 41.5758 67.4667 40.3225 67.12C39.0958 66.7733 37.9625 66.2933 36.9225 65.68H36.8825L37.0025 67.36H33.9225V58H36.5625C36.9092 60.1867 37.7492 61.8667 39.0825 63.04C40.4158 64.1867 42.0425 64.76 43.9625 64.76C45.3492 64.76 46.4958 64.4 47.4025 63.68C48.3092 62.9333 48.7625 62.04 48.7625 61C48.7625 60.1467 48.4558 59.4133 47.8425 58.8C47.2558 58.1867 46.5892 57.7067 45.8425 57.36C45.1225 57.0133 43.9625 56.52 42.3625 55.88C39.4292 54.7067 37.1758 53.3733 35.6025 51.88C34.0558 50.3867 33.2825 48.4267 33.2825 46C33.2825 44.7733 33.5892 43.5867 34.2025 42.44C34.8158 41.2667 35.8158 40.2933 37.2025 39.52C38.6158 38.7467 40.4292 38.36 42.6425 38.36C43.7892 38.36 44.9892 38.5333 46.2425 38.88C47.4958 39.2 48.5358 39.6667 49.3625 40.28H49.4025L49.2425 38.64H52.3625V47.96H49.7225C49.3758 45.7733 48.6025 44.1067 47.4025 42.96C46.2292 41.8133 44.7225 41.24 42.8825 41.24C41.6825 41.24 40.6425 41.5733 39.7625 42.24C38.9092 42.88 38.4825 43.6933 38.4825 44.68C38.4825 45.8533 38.9758 46.84 39.9625 47.64C40.9492 48.44 42.6158 49.32 44.9625 50.28C47.6558 51.3467 49.8425 52.5867 51.5225 54C53.2292 55.3867 54.0825 57.24 54.0825 59.56C54.0825 61.1333 53.6558 62.5333 52.8025 63.76C51.9492 64.9867 50.7492 65.9467 49.2025 66.64C47.6558 67.3067 45.8692 67.64 43.8425 67.64ZM66.9088 67.64C64.9621 67.64 63.2154 67.2267 61.6688 66.4C60.1221 65.5733 58.9088 64.3867 58.0288 62.84C57.1488 61.2933 56.7088 59.4933 56.7088 57.44C56.7088 55.28 57.1621 53.36 58.0688 51.68C58.9754 50 60.1888 48.6933 61.7088 47.76C63.2554 46.8267 64.9488 46.36 66.7888 46.36C68.7088 46.36 70.4288 46.7733 71.9488 47.6C73.4688 48.4267 74.6688 49.6267 75.5488 51.2C76.4288 52.7467 76.8688 54.56 76.8688 56.64C76.8688 58.8533 76.4421 60.7867 75.5888 62.44C74.7621 64.0933 73.5888 65.3733 72.0688 66.28C70.5754 67.1867 68.8554 67.64 66.9088 67.64ZM66.9888 64.8C68.4554 64.8 69.4821 64.12 70.0688 62.76C70.6554 61.4 70.9488 59.6933 70.9488 57.64C70.9488 55.3467 70.6154 53.36 69.9488 51.68C69.2821 50 68.2288 49.16 66.7888 49.16C65.3221 49.16 64.2554 49.8533 63.5888 51.24C62.9221 52.6267 62.5888 54.3333 62.5888 56.36C62.5888 58.68 62.9488 60.6667 63.6688 62.32C64.3888 63.9733 65.4954 64.8 66.9888 64.8ZM89.205 67.64C87.3917 67.64 85.7383 67.24 84.245 66.44C82.7517 65.6133 81.565 64.44 80.685 62.92C79.805 61.3733 79.365 59.5467 79.365 57.44C79.365 55.44 79.805 53.6 80.685 51.92C81.565 50.2133 82.7917 48.8667 84.365 47.88C85.965 46.8667 87.765 46.36 89.765 46.36C91.3917 46.36 92.7783 46.6133 93.925 47.12C95.0983 47.6267 95.9783 48.3067 96.565 49.16C97.1517 49.9867 97.445 50.88 97.445 51.84C97.445 52.6667 97.1917 53.3733 96.685 53.96C96.205 54.5467 95.5383 54.84 94.685 54.84C93.805 54.84 93.1383 54.5733 92.685 54.04C92.2583 53.5067 92.045 52.9067 92.045 52.24C92.045 51.6267 92.205 51.04 92.525 50.48C92.285 50 91.8983 49.6667 91.365 49.48C90.8317 49.2667 90.2983 49.16 89.765 49.16C88.405 49.16 87.2983 49.7867 86.445 51.04C85.6183 52.2667 85.205 54.0133 85.205 56.28C85.205 58.5467 85.645 60.4133 86.525 61.88C87.405 63.3467 88.7917 64.08 90.685 64.08C91.7517 64.08 92.805 63.8 93.845 63.24C94.885 62.68 95.765 61.9333 96.485 61L98.325 62.8C96.9917 64.64 95.565 65.9067 94.045 66.6C92.525 67.2933 90.9117 67.64 89.205 67.64ZM106.108 43.04C105.201 43.04 104.455 42.7333 103.868 42.12C103.281 41.48 102.988 40.7067 102.988 39.8C102.988 38.8933 103.295 38.12 103.908 37.48C104.521 36.8133 105.241 36.48 106.068 36.48C106.921 36.48 107.628 36.8 108.188 37.44C108.775 38.08 109.068 38.8667 109.068 39.8C109.068 40.7333 108.788 41.5067 108.228 42.12C107.695 42.7333 106.988 43.04 106.108 43.04ZM100.468 64.4C101.481 64.4 102.121 64.12 102.388 63.56C102.681 63 102.828 62.0933 102.828 60.84V54.2C102.828 52.9467 102.881 51.7867 102.988 50.72L100.188 50.84V47.8C101.868 47.8 103.228 47.68 104.268 47.44C105.308 47.2 106.001 46.92 106.348 46.6H108.508V60.56C108.508 61.84 108.455 63.0133 108.348 64.08C109.201 64 110.068 63.96 110.948 63.96V67H100.468V64.4ZM118.554 67.64C116.874 67.64 115.541 67.1467 114.554 66.16C113.594 65.1467 113.114 63.8667 113.114 62.32C113.114 59.9733 114.207 58.2 116.394 57C118.581 55.7733 121.207 55.0933 124.274 54.96V52.88C124.274 50.4533 123.367 49.24 121.554 49.24C120.381 49.24 119.421 49.6133 118.674 50.36C118.994 50.7333 119.154 51.24 119.154 51.88C119.154 52.52 118.927 53.0933 118.474 53.6C118.047 54.1067 117.407 54.36 116.554 54.36C115.754 54.36 115.127 54.1067 114.674 53.6C114.221 53.0667 113.994 52.4133 113.994 51.64C113.994 50.6 114.367 49.68 115.114 48.88C115.861 48.08 116.874 47.4667 118.154 47.04C119.461 46.5867 120.887 46.36 122.434 46.36C127.367 46.36 129.834 48.9067 129.834 54L129.794 60.56C129.794 61.84 129.741 63.0133 129.634 64.08C130.514 64 131.381 63.96 132.234 63.96V67H124.674C124.621 66.6533 124.567 66.04 124.514 65.16H124.474C122.847 66.8133 120.874 67.64 118.554 67.64ZM121.074 63.72C122.274 63.72 123.327 63.24 124.234 62.28V57.8C122.661 57.96 121.354 58.36 120.314 59C119.301 59.64 118.794 60.5067 118.794 61.6C118.794 62.32 119.007 62.8533 119.434 63.2C119.887 63.5467 120.434 63.72 121.074 63.72ZM133.891 64.4C134.611 64.4 135.131 64.2667 135.451 64C135.797 63.7067 136.011 63.32 136.091 62.84C136.197 62.36 136.251 61.6933 136.251 60.84V44.4C136.251 43.12 136.304 41.96 136.411 40.92L133.611 41.04V38C135.291 38 136.651 37.88 137.691 37.64C138.731 37.4 139.424 37.12 139.771 36.8H141.931V60.56C141.931 61.84 141.877 63.0133 141.771 64.08C142.651 64 143.517 63.96 144.371 63.96V67H133.891V64.4Z" fill="#030A1B"/>
<path d="M1.246 15V5.06H2.226V15H1.246ZM7.57728 15.14C6.86795 15.14 6.23795 14.9673 5.68728 14.622C5.13661 14.2673 4.70261 13.8053 4.38528 13.236C4.06795 12.6573 3.90928 12.0227 3.90928 11.332C3.90928 10.6413 4.06328 10.016 4.37128 9.456C4.67928 8.88667 5.10861 8.434 5.65928 8.098C6.20995 7.75267 6.84461 7.58 7.56328 7.58C8.24461 7.58 8.84195 7.73867 9.35528 8.056C9.87795 8.364 10.2699 8.784 10.5313 9.316L9.60728 9.61C9.40195 9.23667 9.11261 8.94733 8.73928 8.742C8.37528 8.52733 7.96928 8.42 7.52128 8.42C7.02661 8.42 6.57861 8.546 6.17728 8.798C5.78528 9.05 5.46795 9.4 5.22528 9.848C4.99195 10.2867 4.87528 10.7813 4.87528 11.332C4.87528 11.8827 4.99661 12.382 5.23928 12.83C5.48195 13.278 5.80395 13.6373 6.20528 13.908C6.60661 14.1693 7.04995 14.3 7.53528 14.3C7.85261 14.3 8.16061 14.244 8.45928 14.132C8.75795 14.02 9.01461 13.8707 9.22928 13.684C9.44395 13.488 9.58861 13.278 9.66328 13.054L10.6013 13.334C10.4706 13.6793 10.2559 13.992 9.95728 14.272C9.65861 14.5427 9.30395 14.7573 8.89328 14.916C8.48261 15.0653 8.04395 15.14 7.57728 15.14ZM15.1365 15.14C14.4365 15.14 13.8112 14.9673 13.2605 14.622C12.7192 14.2767 12.2945 13.8193 11.9865 13.25C11.6785 12.6713 11.5245 12.046 11.5245 11.374C11.5245 10.6927 11.6785 10.0673 11.9865 9.498C12.3038 8.91933 12.7332 8.45733 13.2745 8.112C13.8252 7.75733 14.4458 7.58 15.1365 7.58C15.8365 7.58 16.4572 7.75733 16.9985 8.112C17.5492 8.45733 17.9785 8.91933 18.2865 9.498C18.6038 10.0673 18.7625 10.6927 18.7625 11.374C18.7625 12.046 18.6085 12.6713 18.3005 13.25C17.9925 13.8193 17.5632 14.2767 17.0125 14.622C16.4712 14.9673 15.8458 15.14 15.1365 15.14ZM12.4905 11.388C12.4905 11.9293 12.6072 12.424 12.8405 12.872C13.0832 13.3107 13.4052 13.6607 13.8065 13.922C14.2078 14.174 14.6512 14.3 15.1365 14.3C15.6218 14.3 16.0652 14.1693 16.4665 13.908C16.8678 13.6467 17.1898 13.292 17.4325 12.844C17.6752 12.396 17.7965 11.9013 17.7965 11.36C17.7965 10.8187 17.6752 10.324 17.4325 9.876C17.1898 9.428 16.8678 9.07333 16.4665 8.812C16.0652 8.55067 15.6218 8.42 15.1365 8.42C14.6605 8.42 14.2218 8.55533 13.8205 8.826C13.4192 9.08733 13.0972 9.442 12.8545 9.89C12.6118 10.338 12.4905 10.8373 12.4905 11.388ZM26.4867 15H25.5347V10.926C25.5347 10.0673 25.404 9.442 25.1427 9.05C24.8907 8.64867 24.4987 8.448 23.9667 8.448C23.5934 8.448 23.2247 8.54133 22.8607 8.728C22.4967 8.90533 22.1747 9.15267 21.8947 9.47C21.624 9.778 21.428 10.1327 21.3067 10.534V15H20.3547V7.706H21.2227V9.358C21.512 8.826 21.9367 8.39667 22.4967 8.07C23.0567 7.74333 23.6634 7.58 24.3167 7.58C24.858 7.58 25.2874 7.71067 25.6047 7.972C25.922 8.224 26.146 8.588 26.2767 9.064C26.4167 9.53067 26.4867 10.086 26.4867 10.73V15ZM30.9108 15.14C30.3135 15.14 29.7581 15.042 29.2448 14.846C28.7408 14.6407 28.2975 14.342 27.9148 13.95L28.3068 13.278C28.7175 13.6607 29.1281 13.9407 29.5388 14.118C29.9588 14.286 30.4021 14.37 30.8688 14.37C31.4288 14.37 31.8861 14.258 32.2408 14.034C32.6048 13.8007 32.7868 13.4693 32.7868 13.04C32.7868 12.7507 32.6981 12.5313 32.5208 12.382C32.3528 12.2233 32.1055 12.0973 31.7788 12.004C31.4615 11.9107 31.0788 11.8033 30.6308 11.682C30.1268 11.542 29.7021 11.3973 29.3568 11.248C29.0208 11.0893 28.7641 10.8933 28.5868 10.66C28.4188 10.4173 28.3348 10.1047 28.3348 9.722C28.3348 9.25533 28.4515 8.86333 28.6848 8.546C28.9275 8.22867 29.2541 7.99067 29.6648 7.832C30.0848 7.664 30.5515 7.58 31.0648 7.58C31.6248 7.58 32.1195 7.66867 32.5488 7.846C32.9781 8.02333 33.3281 8.27067 33.5988 8.588L33.1368 9.232C32.8848 8.93333 32.5721 8.714 32.1988 8.574C31.8348 8.42467 31.4381 8.35 31.0088 8.35C30.7101 8.35 30.4255 8.392 30.1548 8.476C29.8841 8.55067 29.6601 8.68133 29.4828 8.868C29.3148 9.04533 29.2308 9.29267 29.2308 9.61C29.2308 10.002 29.3755 10.2727 29.6648 10.422C29.9541 10.5713 30.3928 10.73 30.9808 10.898C31.5315 11.0473 32.0121 11.1967 32.4228 11.346C32.8335 11.4953 33.1508 11.696 33.3748 11.948C33.5988 12.1907 33.7108 12.5313 33.7108 12.97C33.7108 13.6513 33.4541 14.1833 32.9408 14.566C32.4275 14.9487 31.7508 15.14 30.9108 15.14Z" fill="#3B3B4D"/>
</svg>
