<svg width="258" height="80" viewBox="0 0 258 80" fill="none" xmlns="http://www.w3.org/2000/svg">
<path d="M8.48 56.16L1.6 56.2V52.4L8.48 52.44V45.28H12.44V52.44L19.44 52.48V56.16H12.44V63.72H8.48V56.16ZM33.5625 64.36C34.2825 64.3333 34.8292 64.2533 35.2025 64.12C35.5758 63.96 35.8692 63.64 36.0825 63.16C36.2958 62.68 36.4025 61.92 36.4025 60.88V45.56C36.4025 44.0667 36.4558 42.8667 36.5625 41.96L33.5625 42.08V39H45.0425V41.64C44.3225 41.6667 43.7758 41.76 43.4025 41.92C43.0292 42.0533 42.7358 42.36 42.5225 42.84C42.3092 43.32 42.2025 44.08 42.2025 45.12V60.44C42.2025 61.9333 42.1492 63.1333 42.0425 64.04C42.8958 63.96 43.8958 63.92 45.0425 63.92V67H33.5625V64.36ZM48.2416 64.4C49.2549 64.4 49.8949 64.12 50.1616 63.56C50.4549 63 50.6016 62.0933 50.6016 60.84V54.12C50.6016 52.92 50.6549 51.7867 50.7616 50.72L47.9616 50.84V47.8C49.6416 47.8 51.0016 47.68 52.0416 47.44C53.0816 47.2 53.7749 46.92 54.1216 46.6H56.0816C56.0816 46.6533 56.1349 47.32 56.2416 48.6H56.3216C57.0949 47.9867 58.0416 47.4667 59.1616 47.04C60.3082 46.5867 61.2816 46.36 62.0816 46.36C64.5082 46.36 66.2416 47.0533 67.2816 48.44C68.3216 49.8267 68.8416 52.08 68.8416 55.2V60.56C68.8416 61.84 68.7882 63.0133 68.6816 64.08C69.5616 64 70.4282 63.96 71.2816 63.96V67H60.8016V64.4C61.8149 64.4 62.4682 64.12 62.7616 63.56C63.0549 63 63.2016 62.0933 63.2016 60.84L63.1616 55.16C63.1616 53.4 62.9082 52.1067 62.4016 51.28C61.9216 50.4533 61.0949 50.04 59.9216 50.04C59.2816 50.04 58.6282 50.1867 57.9616 50.48C57.2949 50.7467 56.7349 51.0933 56.2816 51.52V60.56C56.2816 61.84 56.2282 63.0133 56.1216 64.08C56.9749 64 57.8416 63.96 58.7216 63.96V67H48.2416V64.4ZM73.7513 64.4C74.7646 64.4 75.4179 64.12 75.7113 63.56C76.0046 63 76.1513 62.0933 76.1513 60.84V50.28L73.2313 50.32V47H76.1513V45.84C76.1513 42.72 76.8313 40.44 78.1913 39C79.5513 37.5333 81.4846 36.8 83.9913 36.8C85.7246 36.8 87.0046 37.1467 87.8313 37.84C88.6579 38.5333 89.0713 39.36 89.0713 40.32C89.0713 41.0667 88.8446 41.7067 88.3913 42.24C87.9379 42.7467 87.3113 43 86.5113 43C85.7646 43 85.1779 42.7867 84.7513 42.36C84.3513 41.9333 84.1513 41.3867 84.1513 40.72C84.1513 40.3733 84.1779 40.1067 84.2313 39.92C84.0179 39.7067 83.7113 39.6 83.3113 39.6C82.2446 39.6267 81.7113 40.4533 81.7113 42.08V47H86.1913V50.08L81.7513 50.2L81.7913 60.48C81.7913 61.8133 81.7379 63.0133 81.6313 64.08C82.5113 64 83.4446 63.96 84.4313 63.96V67H73.7513V64.4ZM98.0025 67.64C96.0558 67.64 94.3092 67.2267 92.7625 66.4C91.2158 65.5733 90.0025 64.3867 89.1225 62.84C88.2425 61.2933 87.8025 59.4933 87.8025 57.44C87.8025 55.28 88.2558 53.36 89.1625 51.68C90.0692 50 91.2825 48.6933 92.8025 47.76C94.3492 46.8267 96.0425 46.36 97.8825 46.36C99.8025 46.36 101.523 46.7733 103.043 47.6C104.563 48.4267 105.763 49.6267 106.643 51.2C107.523 52.7467 107.963 54.56 107.963 56.64C107.963 58.8533 107.536 60.7867 106.683 62.44C105.856 64.0933 104.683 65.3733 103.163 66.28C101.669 67.1867 99.9492 67.64 98.0025 67.64ZM98.0825 64.8C99.5492 64.8 100.576 64.12 101.163 62.76C101.749 61.4 102.043 59.6933 102.043 57.64C102.043 55.3467 101.709 53.36 101.043 51.68C100.376 50 99.3225 49.16 97.8825 49.16C96.4158 49.16 95.3492 49.8533 94.6825 51.24C94.0158 52.6267 93.6825 54.3333 93.6825 56.36C93.6825 58.68 94.0425 60.6667 94.7625 62.32C95.4825 63.9733 96.5892 64.8 98.0825 64.8ZM110.859 64.4C111.872 64.4 112.512 64.12 112.779 63.56C113.072 63 113.219 62.0933 113.219 60.84V54.12C113.219 52.92 113.272 51.7867 113.379 50.72L110.579 50.84V47.8C112.259 47.8 113.619 47.68 114.659 47.44C115.699 47.2 116.392 46.92 116.739 46.6H118.699C118.752 47 118.792 47.52 118.819 48.16C118.845 48.8 118.859 49.4267 118.859 50.04H118.939C120.752 47.5867 122.672 46.36 124.699 46.36C125.712 46.36 126.539 46.64 127.179 47.2C127.845 47.76 128.179 48.5867 128.179 49.68C128.179 50.3733 127.952 51.0133 127.499 51.6C127.045 52.1867 126.365 52.48 125.459 52.48C124.792 52.48 124.192 52.3067 123.659 51.96C123.152 51.6133 122.859 51.0133 122.779 50.16C122.032 50.16 121.259 50.6 120.459 51.48C119.685 52.3333 119.165 53.1867 118.899 54.04V60.56C118.899 61.84 118.845 63.0133 118.739 64.08C119.592 64 120.459 63.96 121.339 63.96V67H110.859V64.4ZM130.078 64.4C131.091 64.4 131.731 64.12 131.998 63.56C132.291 63 132.438 62.0933 132.438 60.84V54.12C132.438 52.92 132.491 51.7867 132.598 50.72L129.798 50.84V47.8C131.478 47.8 132.838 47.68 133.878 47.44C134.918 47.2 135.611 46.92 135.958 46.6H137.918C137.918 46.6533 137.971 47.32 138.078 48.6H138.158C138.984 47.9333 139.918 47.4 140.958 47C141.998 46.5733 143.011 46.36 143.998 46.36C145.198 46.36 146.198 46.5867 146.998 47.04C147.824 47.4667 148.478 48.12 148.958 49C149.918 48.2 150.984 47.56 152.158 47.08C153.331 46.6 154.438 46.36 155.478 46.36C157.691 46.36 159.331 47 160.398 48.28C161.491 49.56 162.038 51.6933 162.038 54.68V60.56C162.038 61.84 161.984 63.0133 161.878 64.08C162.731 64 163.598 63.96 164.478 63.96V67H154.358V64.4C155.211 64.4 155.758 64.12 155.998 63.56C156.238 62.9733 156.358 62.0667 156.358 60.84V54.72C156.331 53.04 156.051 51.8533 155.518 51.16C154.984 50.44 154.211 50.08 153.198 50.08C152.024 50.08 150.878 50.52 149.758 51.4C149.998 52.4667 150.118 53.7333 150.118 55.2V60.56C150.118 61.84 150.064 63.0133 149.958 64.08C150.811 64 151.678 63.96 152.558 63.96V67H142.238V64.4C143.171 64.4 143.771 64.12 144.038 63.56C144.304 63 144.438 62.0933 144.438 60.84L144.398 54.6C144.398 52.9467 144.158 51.7867 143.678 51.12C143.198 50.4267 142.478 50.0667 141.518 50.04C140.344 50.04 139.211 50.5333 138.118 51.52V60.56C138.118 61.84 138.064 63.0133 137.958 64.08C138.811 64 139.611 63.96 140.358 63.96V67H130.078V64.4ZM171.874 67.64C170.194 67.64 168.861 67.1467 167.874 66.16C166.914 65.1467 166.434 63.8667 166.434 62.32C166.434 59.9733 167.528 58.2 169.714 57C171.901 55.7733 174.528 55.0933 177.594 54.96V52.88C177.594 50.4533 176.688 49.24 174.874 49.24C173.701 49.24 172.741 49.6133 171.994 50.36C172.314 50.7333 172.474 51.24 172.474 51.88C172.474 52.52 172.248 53.0933 171.794 53.6C171.368 54.1067 170.728 54.36 169.874 54.36C169.074 54.36 168.448 54.1067 167.994 53.6C167.541 53.0667 167.314 52.4133 167.314 51.64C167.314 50.6 167.688 49.68 168.434 48.88C169.181 48.08 170.194 47.4667 171.474 47.04C172.781 46.5867 174.208 46.36 175.754 46.36C180.688 46.36 183.154 48.9067 183.154 54L183.114 60.56C183.114 61.84 183.061 63.0133 182.954 64.08C183.834 64 184.701 63.96 185.554 63.96V67H177.994C177.941 66.6533 177.888 66.04 177.834 65.16H177.794C176.168 66.8133 174.194 67.64 171.874 67.64ZM174.394 63.72C175.594 63.72 176.648 63.24 177.554 62.28V57.8C175.981 57.96 174.674 58.36 173.634 59C172.621 59.64 172.114 60.5067 172.114 61.6C172.114 62.32 172.328 62.8533 172.754 63.2C173.208 63.5467 173.754 63.72 174.394 63.72ZM195.615 67.64C191.455 67.64 189.375 65.08 189.375 59.96L189.455 50.32H186.735V47C187.588 47 188.388 46.7333 189.135 46.2C189.908 45.6667 190.561 45.0133 191.095 44.24C191.628 43.4667 192.001 42.72 192.215 42H195.175L195.135 47H200.215V50.08L195.135 50.2L195.095 60.04C195.095 62.6267 195.895 63.92 197.495 63.92C198.775 63.92 199.988 63.12 201.135 61.52L203.055 63.32C201.801 65.16 200.548 66.3467 199.295 66.88C198.041 67.3867 196.815 67.64 195.615 67.64ZM209.858 43.04C208.951 43.04 208.205 42.7333 207.618 42.12C207.031 41.48 206.738 40.7067 206.738 39.8C206.738 38.8933 207.045 38.12 207.658 37.48C208.271 36.8133 208.991 36.48 209.818 36.48C210.671 36.48 211.378 36.8 211.938 37.44C212.525 38.08 212.818 38.8667 212.818 39.8C212.818 40.7333 212.538 41.5067 211.978 42.12C211.445 42.7333 210.738 43.04 209.858 43.04ZM204.218 64.4C205.231 64.4 205.871 64.12 206.138 63.56C206.431 63 206.578 62.0933 206.578 60.84V54.2C206.578 52.9467 206.631 51.7867 206.738 50.72L203.938 50.84V47.8C205.618 47.8 206.978 47.68 208.018 47.44C209.058 47.2 209.751 46.92 210.098 46.6H212.258V60.56C212.258 61.84 212.205 63.0133 212.098 64.08C212.951 64 213.818 63.96 214.698 63.96V67H204.218V64.4ZM218.151 53.24C217.831 52.52 217.604 51.9733 217.471 51.6C217.364 51.2267 217.284 50.9067 217.231 50.64C217.177 50.3467 217.137 50.12 217.111 49.96L215.631 50.04V47H224.991V49.56C224.084 49.5867 223.631 50.0267 223.631 50.88C223.631 51.36 223.764 51.96 224.031 52.68L227.391 60.96H227.431L230.351 52.72C230.724 51.7067 231.164 50.7733 231.671 49.92V49.88L229.191 50.04V47H236.791V49.56C235.964 49.6933 235.257 50.2133 234.671 51.12C234.111 52.0267 233.577 53.1067 233.071 54.36L227.951 67.12H224.471L218.151 53.24ZM247.565 67.64C245.619 67.64 243.899 67.2133 242.405 66.36C240.912 65.48 239.752 64.24 238.925 62.64C238.099 61.04 237.685 59.1733 237.685 57.04C237.685 55.1733 238.099 53.4267 238.925 51.8C239.779 50.1467 240.965 48.8267 242.485 47.84C244.005 46.8533 245.739 46.36 247.685 46.36C250.272 46.36 252.419 47.12 254.125 48.64C255.859 50.16 256.712 52.6933 256.685 56.24L243.565 56.48C243.565 58.8267 244.005 60.68 244.885 62.04C245.792 63.4 247.232 64.08 249.205 64.08C250.139 64.08 251.139 63.84 252.205 63.36C253.272 62.88 254.232 62.12 255.085 61.08L256.885 62.76C254.619 66.0133 251.512 67.64 247.565 67.64ZM251.165 53.68C251.085 50.6667 249.992 49.16 247.885 49.16C246.739 49.16 245.819 49.5733 245.125 50.4C244.459 51.2 244.019 52.2933 243.805 53.68H251.165Z" fill="#030A1B"/>
<path d="M1.246 15V5.06H2.226V15H1.246ZM7.57728 15.14C6.86795 15.14 6.23795 14.9673 5.68728 14.622C5.13661 14.2673 4.70261 13.8053 4.38528 13.236C4.06795 12.6573 3.90928 12.0227 3.90928 11.332C3.90928 10.6413 4.06328 10.016 4.37128 9.456C4.67928 8.88667 5.10861 8.434 5.65928 8.098C6.20995 7.75267 6.84461 7.58 7.56328 7.58C8.24461 7.58 8.84195 7.73867 9.35528 8.056C9.87795 8.364 10.2699 8.784 10.5313 9.316L9.60728 9.61C9.40195 9.23667 9.11261 8.94733 8.73928 8.742C8.37528 8.52733 7.96928 8.42 7.52128 8.42C7.02661 8.42 6.57861 8.546 6.17728 8.798C5.78528 9.05 5.46795 9.4 5.22528 9.848C4.99195 10.2867 4.87528 10.7813 4.87528 11.332C4.87528 11.8827 4.99661 12.382 5.23928 12.83C5.48195 13.278 5.80395 13.6373 6.20528 13.908C6.60661 14.1693 7.04995 14.3 7.53528 14.3C7.85261 14.3 8.16061 14.244 8.45928 14.132C8.75795 14.02 9.01461 13.8707 9.22928 13.684C9.44395 13.488 9.58861 13.278 9.66328 13.054L10.6013 13.334C10.4706 13.6793 10.2559 13.992 9.95728 14.272C9.65861 14.5427 9.30395 14.7573 8.89328 14.916C8.48261 15.0653 8.04395 15.14 7.57728 15.14ZM15.1365 15.14C14.4365 15.14 13.8112 14.9673 13.2605 14.622C12.7192 14.2767 12.2945 13.8193 11.9865 13.25C11.6785 12.6713 11.5245 12.046 11.5245 11.374C11.5245 10.6927 11.6785 10.0673 11.9865 9.498C12.3038 8.91933 12.7332 8.45733 13.2745 8.112C13.8252 7.75733 14.4458 7.58 15.1365 7.58C15.8365 7.58 16.4572 7.75733 16.9985 8.112C17.5492 8.45733 17.9785 8.91933 18.2865 9.498C18.6038 10.0673 18.7625 10.6927 18.7625 11.374C18.7625 12.046 18.6085 12.6713 18.3005 13.25C17.9925 13.8193 17.5632 14.2767 17.0125 14.622C16.4712 14.9673 15.8458 15.14 15.1365 15.14ZM12.4905 11.388C12.4905 11.9293 12.6072 12.424 12.8405 12.872C13.0832 13.3107 13.4052 13.6607 13.8065 13.922C14.2078 14.174 14.6512 14.3 15.1365 14.3C15.6218 14.3 16.0652 14.1693 16.4665 13.908C16.8678 13.6467 17.1898 13.292 17.4325 12.844C17.6752 12.396 17.7965 11.9013 17.7965 11.36C17.7965 10.8187 17.6752 10.324 17.4325 9.876C17.1898 9.428 16.8678 9.07333 16.4665 8.812C16.0652 8.55067 15.6218 8.42 15.1365 8.42C14.6605 8.42 14.2218 8.55533 13.8205 8.826C13.4192 9.08733 13.0972 9.442 12.8545 9.89C12.6118 10.338 12.4905 10.8373 12.4905 11.388ZM26.4867 15H25.5347V10.926C25.5347 10.0673 25.404 9.442 25.1427 9.05C24.8907 8.64867 24.4987 8.448 23.9667 8.448C23.5934 8.448 23.2247 8.54133 22.8607 8.728C22.4967 8.90533 22.1747 9.15267 21.8947 9.47C21.624 9.778 21.428 10.1327 21.3067 10.534V15H20.3547V7.706H21.2227V9.358C21.512 8.826 21.9367 8.39667 22.4967 8.07C23.0567 7.74333 23.6634 7.58 24.3167 7.58C24.858 7.58 25.2874 7.71067 25.6047 7.972C25.922 8.224 26.146 8.588 26.2767 9.064C26.4167 9.53067 26.4867 10.086 26.4867 10.73V15ZM30.9108 15.14C30.3135 15.14 29.7581 15.042 29.2448 14.846C28.7408 14.6407 28.2975 14.342 27.9148 13.95L28.3068 13.278C28.7175 13.6607 29.1281 13.9407 29.5388 14.118C29.9588 14.286 30.4021 14.37 30.8688 14.37C31.4288 14.37 31.8861 14.258 32.2408 14.034C32.6048 13.8007 32.7868 13.4693 32.7868 13.04C32.7868 12.7507 32.6981 12.5313 32.5208 12.382C32.3528 12.2233 32.1055 12.0973 31.7788 12.004C31.4615 11.9107 31.0788 11.8033 30.6308 11.682C30.1268 11.542 29.7021 11.3973 29.3568 11.248C29.0208 11.0893 28.7641 10.8933 28.5868 10.66C28.4188 10.4173 28.3348 10.1047 28.3348 9.722C28.3348 9.25533 28.4515 8.86333 28.6848 8.546C28.9275 8.22867 29.2541 7.99067 29.6648 7.832C30.0848 7.664 30.5515 7.58 31.0648 7.58C31.6248 7.58 32.1195 7.66867 32.5488 7.846C32.9781 8.02333 33.3281 8.27067 33.5988 8.588L33.1368 9.232C32.8848 8.93333 32.5721 8.714 32.1988 8.574C31.8348 8.42467 31.4381 8.35 31.0088 8.35C30.7101 8.35 30.4255 8.392 30.1548 8.476C29.8841 8.55067 29.6601 8.68133 29.4828 8.868C29.3148 9.04533 29.2308 9.29267 29.2308 9.61C29.2308 10.002 29.3755 10.2727 29.6648 10.422C29.9541 10.5713 30.3928 10.73 30.9808 10.898C31.5315 11.0473 32.0121 11.1967 32.4228 11.346C32.8335 11.4953 33.1508 11.696 33.3748 11.948C33.5988 12.1907 33.7108 12.5313 33.7108 12.97C33.7108 13.6513 33.4541 14.1833 32.9408 14.566C32.4275 14.9487 31.7508 15.14 30.9108 15.14Z" fill="#3B3B4D"/>
</svg>
