<svg width="301" height="80" viewBox="0 0 301 80" fill="none" xmlns="http://www.w3.org/2000/svg">
<path d="M1.68 51.04H9.04V43.68H12.16V51.04H19.52V54.16H12.16V61.52H9.04V54.16H1.68V51.04ZM33.7188 67V64.36C34.3321 64.3333 34.8388 64.2533 35.2388 64.12C35.6654 63.9867 35.9854 63.68 36.1988 63.2C36.4388 62.72 36.5588 61.9467 36.5588 60.88V45.56C36.5588 44.84 36.5721 44.1467 36.5988 43.48C36.6521 42.8133 36.6921 42.3067 36.7188 41.96C36.2921 41.9867 35.7588 42.0133 35.1188 42.04C34.4788 42.04 34.0121 42.0533 33.7188 42.08V39C35.5588 38.9733 37.3988 38.96 39.2388 38.96C41.1054 38.96 42.9588 38.9467 44.7988 38.92C47.9988 38.8933 50.5321 39.4933 52.3988 40.72C54.2921 41.92 55.1721 43.7467 55.0388 46.2C54.9588 47.3467 54.4521 48.4533 53.5188 49.52C52.5854 50.56 51.1721 51.3333 49.2788 51.84V51.88C51.9454 52.3067 53.9054 53.2 55.1588 54.56C56.4121 55.8933 57.0388 57.3867 57.0388 59.04C57.0388 60.7733 56.6121 62.24 55.7588 63.44C54.9321 64.6133 53.7854 65.5067 52.3188 66.12C50.8521 66.7067 49.1854 67 47.3188 67H33.7188ZM42.3588 51.28L44.4388 51.24C46.1188 51.1867 47.2788 50.6533 47.9188 49.64C48.5854 48.6 48.9188 47.3467 48.9188 45.88C48.9188 44.8133 48.7054 43.9867 48.2788 43.4C47.8521 42.7867 47.3188 42.3467 46.6788 42.08C46.0388 41.8133 45.3721 41.6933 44.6788 41.72C44.2521 41.72 43.8654 41.7867 43.5188 41.92C43.1721 42.0533 42.8921 42.36 42.6788 42.84C42.4654 43.2933 42.3588 44.04 42.3588 45.08V51.28ZM42.1988 64.16C42.8921 64.16 43.5588 64.16 44.1988 64.16C44.8388 64.16 45.4654 64.1467 46.0788 64.12C47.7054 64.04 48.8921 63.52 49.6388 62.56C50.3854 61.6 50.7588 60.3867 50.7588 58.92C50.7588 57.6933 50.5054 56.7333 49.9988 56.04C49.4921 55.32 48.8388 54.8133 48.0388 54.52C47.2654 54.2267 46.4521 54.08 45.5988 54.08C44.9321 54.08 44.3588 54.08 43.8788 54.08C43.3988 54.08 42.8921 54.0933 42.3588 54.12V60.64C42.3588 61.36 42.3454 62.04 42.3188 62.68C42.2921 63.32 42.2521 63.8133 42.1988 64.16ZM70.9241 67C70.8707 66.6267 70.8307 66.32 70.8041 66.08C70.8041 65.8133 70.7907 65.5067 70.7641 65.16C69.8574 66.0667 68.8974 66.7067 67.8841 67.08C66.8707 67.4533 65.8441 67.64 64.8041 67.64C63.0974 67.64 61.7641 67.1333 60.8041 66.12C59.8441 65.1067 59.3641 63.84 59.3641 62.32C59.3641 61.04 59.6841 59.9467 60.3241 59.04C60.9907 58.1333 61.8574 57.4 62.9241 56.84C64.0174 56.2533 65.2174 55.8133 66.5241 55.52C67.8574 55.2 69.1907 55.0133 70.5241 54.96V52.88C70.5241 51.84 70.3107 50.96 69.8841 50.24C69.4841 49.52 68.7374 49.1867 67.6441 49.24C66.5241 49.2933 65.6174 49.6667 64.9241 50.36C65.1374 50.6 65.2707 50.8667 65.3241 51.16C65.3774 51.4267 65.4041 51.6667 65.4041 51.88C65.4041 52.4133 65.1907 52.9733 64.7641 53.56C64.3374 54.12 63.6574 54.3867 62.7241 54.36C61.9241 54.3333 61.3107 54.0533 60.8841 53.52C60.4574 52.9867 60.2441 52.36 60.2441 51.64C60.2441 50.5733 60.6174 49.6533 61.3641 48.88C62.1374 48.08 63.1641 47.4667 64.4441 47.04C65.7241 46.5867 67.1374 46.36 68.6841 46.36C71.0307 46.36 72.8441 46.9733 74.1241 48.2C75.4307 49.4 76.0841 51.3333 76.0841 54C76.0841 54.9067 76.0841 55.68 76.0841 56.32C76.0841 56.96 76.0707 57.6 76.0441 58.24C76.0441 58.88 76.0441 59.6533 76.0441 60.56C76.0441 60.9333 76.0307 61.4667 76.0041 62.16C75.9774 62.8267 75.9374 63.4667 75.8841 64.08C76.3374 64.0267 76.8174 64 77.3241 64C77.8307 63.9733 78.2174 63.96 78.4841 63.96V67H70.9241ZM70.4841 57.8C68.9907 57.9333 67.6974 58.32 66.6041 58.96C65.5374 59.6 65.0174 60.4933 65.0441 61.64C65.0707 62.3867 65.3107 62.92 65.7641 63.24C66.2174 63.56 66.7374 63.72 67.3241 63.72C67.9374 63.72 68.5107 63.5867 69.0441 63.32C69.5774 63.0533 70.0574 62.7067 70.4841 62.28V57.8ZM89.9806 67.64C88.834 67.64 87.714 67.4933 86.6206 67.2C85.5273 66.9067 84.674 66.5333 84.0606 66.08L84.1406 67.28H81.1006L80.9406 60.4H83.5406C83.674 61.6267 84.314 62.6667 85.4606 63.52C86.6073 64.3467 88.034 64.76 89.7406 64.76C90.4073 64.76 91.034 64.6 91.6206 64.28C92.2073 63.96 92.5006 63.4533 92.5006 62.76C92.474 61.9867 92.0606 61.4133 91.2606 61.04C90.4873 60.6667 89.354 60.1867 87.8606 59.6C87.034 59.28 86.194 58.9467 85.3406 58.6C84.514 58.2533 83.7406 57.84 83.0206 57.36C82.3273 56.8533 81.7673 56.24 81.3406 55.52C80.914 54.7733 80.7006 53.8667 80.7006 52.8C80.7006 51.76 80.954 50.7467 81.4606 49.76C81.994 48.7733 82.8206 47.96 83.9406 47.32C85.0606 46.68 86.4873 46.36 88.2206 46.36C88.9406 46.36 89.754 46.48 90.6606 46.72C91.594 46.9333 92.3806 47.2667 93.0206 47.72V46.56H96.0606V53.64H93.4606C93.2206 52.2533 92.6073 51.16 91.6206 50.36C90.634 49.56 89.4206 49.16 87.9806 49.16C87.314 49.16 86.7006 49.32 86.1406 49.64C85.6073 49.96 85.3406 50.5067 85.3406 51.28C85.3406 51.8933 85.554 52.3867 85.9806 52.76C86.4073 53.1067 86.994 53.4 87.7406 53.64C88.4873 53.88 89.314 54.16 90.2206 54.48C91.5806 54.9333 92.7806 55.4667 93.8206 56.08C94.8873 56.6933 95.7273 57.44 96.3406 58.32C96.954 59.1733 97.2606 60.2267 97.2606 61.48C97.2606 62.8667 96.914 64.0133 96.2206 64.92C95.5273 65.8267 94.6206 66.5067 93.5006 66.96C92.4073 67.4133 91.234 67.64 89.9806 67.64ZM100.195 64.4C101.288 64.4 101.955 64.08 102.195 63.44C102.435 62.7733 102.555 61.9067 102.555 60.84V54.2C102.555 53.72 102.568 53.1733 102.595 52.56C102.621 51.92 102.661 51.3067 102.715 50.72C102.288 50.7467 101.781 50.7733 101.195 50.8C100.635 50.8 100.208 50.8133 99.9147 50.84V47.8C101.755 47.8 103.168 47.6667 104.155 47.4C105.168 47.1333 105.808 46.8667 106.075 46.6H108.235V60.56C108.235 60.9333 108.221 61.4667 108.195 62.16C108.168 62.8267 108.128 63.4667 108.075 64.08C108.501 64.0267 108.968 64 109.475 64C110.008 63.9733 110.408 63.96 110.675 63.96V67H100.195V64.4ZM105.195 43.44C104.288 43.44 103.541 43.12 102.955 42.48C102.368 41.84 102.075 41.0667 102.075 40.16C102.075 39.2533 102.381 38.48 102.995 37.84C103.608 37.2 104.328 36.88 105.155 36.88C106.008 36.88 106.715 37.2 107.275 37.84C107.861 38.48 108.155 39.2533 108.155 40.16C108.155 41.0667 107.888 41.84 107.355 42.48C106.821 43.12 106.101 43.44 105.195 43.44ZM122.721 67.64C120.934 67.64 119.294 67.24 117.801 66.44C116.307 65.64 115.107 64.48 114.201 62.96C113.321 61.44 112.881 59.6 112.881 57.44C112.881 55.4133 113.321 53.5733 114.201 51.92C115.081 50.24 116.294 48.8933 117.841 47.88C119.414 46.8667 121.227 46.36 123.281 46.36C124.987 46.36 126.401 46.6267 127.521 47.16C128.667 47.6667 129.521 48.3467 130.081 49.2C130.667 50.0267 130.961 50.9067 130.961 51.84C130.961 52.6133 130.721 53.3067 130.241 53.92C129.787 54.5067 129.134 54.8133 128.281 54.84C127.267 54.8667 126.561 54.5867 126.161 54C125.761 53.3867 125.561 52.8 125.561 52.24C125.561 52 125.601 51.72 125.681 51.4C125.761 51.0533 125.881 50.7467 126.041 50.48C125.747 49.8933 125.281 49.52 124.641 49.36C124.001 49.2 123.494 49.1333 123.121 49.16C121.841 49.24 120.787 49.88 119.961 51.08C119.134 52.28 118.721 54.0133 118.721 56.28C118.721 57.6133 118.881 58.8667 119.201 60.04C119.547 61.1867 120.107 62.1333 120.881 62.88C121.654 63.6267 122.694 64.0267 124.001 64.08C125.121 64.1067 126.214 63.84 127.281 63.28C128.347 62.72 129.254 61.96 130.001 61L131.841 62.8C130.881 64.1333 129.881 65.1467 128.841 65.84C127.801 66.5333 126.761 67 125.721 67.24C124.707 67.5067 123.707 67.64 122.721 67.64ZM155.372 41.64C154.785 41.6667 154.278 41.7467 153.852 41.88C153.425 42.0133 153.092 42.32 152.852 42.8C152.638 43.2533 152.532 44.0267 152.532 45.12V56.12C152.532 58.3333 152.838 60.0533 153.452 61.28C154.065 62.48 154.852 63.32 155.812 63.8C156.798 64.28 157.825 64.5467 158.892 64.6C161.105 64.68 162.825 64.0133 164.052 62.6C165.278 61.1867 165.892 59 165.892 56.04V45.56C165.892 44.84 165.905 44.1467 165.932 43.48C165.958 42.8133 165.998 42.3067 166.052 41.96C165.625 41.9867 165.078 42.0133 164.412 42.04C163.772 42.04 163.305 42.0533 163.012 42.08V39H172.292V41.64C171.705 41.6667 171.198 41.7467 170.772 41.88C170.345 42.0133 170.012 42.32 169.772 42.8C169.558 43.2533 169.452 44.0267 169.452 45.12V55.12C169.452 58.1867 168.958 60.64 167.972 62.48C167.012 64.2933 165.678 65.6133 163.972 66.44C162.292 67.24 160.385 67.64 158.252 67.64C156.012 67.64 154.145 67.32 152.652 66.68C151.158 66.04 149.972 65.1467 149.092 64C148.238 62.8533 147.625 61.5333 147.252 60.04C146.905 58.5467 146.732 56.9467 146.732 55.24V45.56C146.732 44.84 146.745 44.1467 146.772 43.48C146.825 42.8133 146.865 42.3067 146.892 41.96C146.465 41.9867 145.932 42.0133 145.292 42.04C144.652 42.04 144.185 42.0533 143.892 42.08V39H155.372V41.64ZM186.722 41.64C186.136 41.6667 185.629 41.7467 185.202 41.88C184.776 42.0133 184.442 42.32 184.202 42.8C183.989 43.2533 183.882 44.0267 183.882 45.12V60.44C183.882 61.16 183.869 61.8533 183.842 62.52C183.816 63.1867 183.776 63.6933 183.722 64.04C184.149 63.9867 184.682 63.96 185.322 63.96C185.989 63.9333 186.456 63.92 186.722 63.92V67H175.242V64.36C175.856 64.3333 176.362 64.2533 176.762 64.12C177.189 63.9867 177.509 63.68 177.722 63.2C177.962 62.72 178.082 61.9467 178.082 60.88V45.56C178.082 44.84 178.096 44.1467 178.122 43.48C178.176 42.8133 178.216 42.3067 178.242 41.96C177.816 41.9867 177.282 42.0133 176.642 42.04C176.002 42.04 175.536 42.0533 175.242 42.08V39H186.722V41.64ZM200.859 64.4C201.952 64.4 202.619 64.08 202.859 63.44C203.099 62.7733 203.219 61.9067 203.219 60.84V54.2C203.219 53.72 203.232 53.1733 203.259 52.56C203.285 51.92 203.325 51.3067 203.379 50.72C202.952 50.7467 202.445 50.7733 201.859 50.8C201.299 50.8 200.872 50.8133 200.579 50.84V47.8C202.419 47.8 203.832 47.6667 204.819 47.4C205.832 47.1333 206.472 46.8667 206.739 46.6H208.899V60.56C208.899 60.9333 208.885 61.4667 208.859 62.16C208.832 62.8267 208.792 63.4667 208.739 64.08C209.165 64.0267 209.632 64 210.139 64C210.672 63.9733 211.072 63.96 211.339 63.96V67H200.859V64.4ZM205.859 43.44C204.952 43.44 204.205 43.12 203.619 42.48C203.032 41.84 202.739 41.0667 202.739 40.16C202.739 39.2533 203.045 38.48 203.659 37.84C204.272 37.2 204.992 36.88 205.819 36.88C206.672 36.88 207.379 37.2 207.939 37.84C208.525 38.48 208.819 39.2533 208.819 40.16C208.819 41.0667 208.552 41.84 208.019 42.48C207.485 43.12 206.765 43.44 205.859 43.44ZM223.385 67.64C221.598 67.64 219.958 67.24 218.465 66.44C216.971 65.64 215.771 64.48 214.865 62.96C213.985 61.44 213.545 59.6 213.545 57.44C213.545 55.4133 213.985 53.5733 214.865 51.92C215.745 50.24 216.958 48.8933 218.505 47.88C220.078 46.8667 221.891 46.36 223.945 46.36C225.651 46.36 227.065 46.6267 228.185 47.16C229.331 47.6667 230.185 48.3467 230.745 49.2C231.331 50.0267 231.625 50.9067 231.625 51.84C231.625 52.6133 231.385 53.3067 230.905 53.92C230.451 54.5067 229.798 54.8133 228.945 54.84C227.931 54.8667 227.225 54.5867 226.825 54C226.425 53.3867 226.225 52.8 226.225 52.24C226.225 52 226.265 51.72 226.345 51.4C226.425 51.0533 226.545 50.7467 226.705 50.48C226.411 49.8933 225.945 49.52 225.305 49.36C224.665 49.2 224.158 49.1333 223.785 49.16C222.505 49.24 221.451 49.88 220.625 51.08C219.798 52.28 219.385 54.0133 219.385 56.28C219.385 57.6133 219.545 58.8667 219.865 60.04C220.211 61.1867 220.771 62.1333 221.545 62.88C222.318 63.6267 223.358 64.0267 224.665 64.08C225.785 64.1067 226.878 63.84 227.945 63.28C229.011 62.72 229.918 61.96 230.665 61L232.505 62.8C231.545 64.1333 230.545 65.1467 229.505 65.84C228.465 66.5333 227.425 67 226.385 67.24C225.371 67.5067 224.371 67.64 223.385 67.64ZM244.448 67.64C242.528 67.64 240.794 67.2267 239.248 66.4C237.701 65.5733 236.474 64.4 235.568 62.88C234.688 61.3333 234.248 59.52 234.248 57.44C234.248 55.2267 234.701 53.2933 235.608 51.64C236.541 49.96 237.768 48.6667 239.288 47.76C240.834 46.8267 242.514 46.36 244.328 46.36C246.248 46.36 247.968 46.7733 249.488 47.6C251.008 48.4267 252.208 49.6133 253.088 51.16C253.968 52.68 254.408 54.5067 254.408 56.64C254.408 58.88 253.981 60.8267 253.128 62.48C252.274 64.1333 251.101 65.4133 249.608 66.32C248.114 67.2 246.394 67.64 244.448 67.64ZM244.608 64.8C245.674 64.7733 246.474 64.4 247.008 63.68C247.568 62.96 247.954 62.0533 248.168 60.96C248.381 59.8667 248.488 58.76 248.488 57.64C248.488 56.6533 248.408 55.6533 248.248 54.64C248.114 53.6267 247.888 52.7067 247.568 51.88C247.248 51.0533 246.808 50.3867 246.248 49.88C245.714 49.3733 245.048 49.1333 244.248 49.16C243.208 49.1867 242.381 49.56 241.768 50.28C241.181 51 240.754 51.9067 240.488 53C240.248 54.0667 240.128 55.1867 240.128 56.36C240.128 57.72 240.274 59.0533 240.568 60.36C240.861 61.6667 241.328 62.7467 241.968 63.6C242.634 64.4267 243.514 64.8267 244.608 64.8ZM257.304 67V64.4C258.397 64.4 259.064 64.08 259.304 63.44C259.544 62.7733 259.664 61.9067 259.664 60.84V54.12C259.664 53.64 259.677 53.1067 259.704 52.52C259.731 51.9067 259.771 51.3067 259.824 50.72C259.397 50.7467 258.891 50.7733 258.304 50.8C257.744 50.8 257.317 50.8133 257.024 50.84V47.8C258.864 47.8 260.277 47.6667 261.264 47.4C262.277 47.1333 262.917 46.8667 263.184 46.6H265.144C265.197 46.9467 265.224 47.2 265.224 47.36C265.224 47.52 265.224 47.68 265.224 47.84C265.251 47.9733 265.304 48.2267 265.384 48.6C265.917 48.1733 266.531 47.8 267.224 47.48C267.917 47.1333 268.611 46.8667 269.304 46.68C269.997 46.4667 270.611 46.36 271.144 46.36C273.597 46.36 275.331 47.0667 276.344 48.48C277.384 49.8667 277.904 52.1067 277.904 55.2V60.56C277.904 60.9333 277.891 61.4667 277.864 62.16C277.837 62.8267 277.797 63.4667 277.744 64.08C278.197 64.0267 278.677 64 279.184 64C279.691 63.9733 280.077 63.96 280.344 63.96V67H269.864V64.4C270.984 64.4 271.664 64.08 271.904 63.44C272.144 62.7733 272.264 61.9067 272.264 60.84L272.224 55.16C272.224 53.4267 271.971 52.1467 271.464 51.32C270.984 50.4667 270.157 50.04 268.984 50.04C268.317 50.04 267.651 50.1867 266.984 50.48C266.344 50.7733 265.797 51.12 265.344 51.52V60.56C265.344 60.9333 265.331 61.4667 265.304 62.16C265.277 62.8267 265.237 63.4667 265.184 64.08C265.611 64.0267 266.077 64 266.584 64C267.117 63.9733 267.517 63.96 267.784 63.96V67H257.304ZM291.934 67.64C290.787 67.64 289.667 67.4933 288.574 67.2C287.48 66.9067 286.627 66.5333 286.014 66.08L286.094 67.28H283.054L282.894 60.4H285.494C285.627 61.6267 286.267 62.6667 287.414 63.52C288.56 64.3467 289.987 64.76 291.694 64.76C292.36 64.76 292.987 64.6 293.574 64.28C294.16 63.96 294.454 63.4533 294.454 62.76C294.427 61.9867 294.014 61.4133 293.214 61.04C292.44 60.6667 291.307 60.1867 289.814 59.6C288.987 59.28 288.147 58.9467 287.294 58.6C286.467 58.2533 285.694 57.84 284.974 57.36C284.28 56.8533 283.72 56.24 283.294 55.52C282.867 54.7733 282.654 53.8667 282.654 52.8C282.654 51.76 282.907 50.7467 283.414 49.76C283.947 48.7733 284.774 47.96 285.894 47.32C287.014 46.68 288.44 46.36 290.174 46.36C290.894 46.36 291.707 46.48 292.614 46.72C293.547 46.9333 294.334 47.2667 294.974 47.72V46.56H298.014V53.64H295.414C295.174 52.2533 294.56 51.16 293.574 50.36C292.587 49.56 291.374 49.16 289.934 49.16C289.267 49.16 288.654 49.32 288.094 49.64C287.56 49.96 287.294 50.5067 287.294 51.28C287.294 51.8933 287.507 52.3867 287.934 52.76C288.36 53.1067 288.947 53.4 289.694 53.64C290.44 53.88 291.267 54.16 292.174 54.48C293.534 54.9333 294.734 55.4667 295.774 56.08C296.84 56.6933 297.68 57.44 298.294 58.32C298.907 59.1733 299.214 60.2267 299.214 61.48C299.214 62.8667 298.867 64.0133 298.174 64.92C297.48 65.8267 296.574 66.5067 295.454 66.96C294.36 67.4133 293.187 67.64 291.934 67.64Z" fill="#030A1B"/>
<path d="M1.246 15V5.06H2.226V15H1.246ZM7.57728 15.14C6.86795 15.14 6.23795 14.9673 5.68728 14.622C5.13661 14.2673 4.70261 13.8053 4.38528 13.236C4.06795 12.6573 3.90928 12.0227 3.90928 11.332C3.90928 10.6413 4.06328 10.016 4.37128 9.456C4.67928 8.88667 5.10861 8.434 5.65928 8.098C6.20995 7.75267 6.84461 7.58 7.56328 7.58C8.24461 7.58 8.84195 7.73867 9.35528 8.056C9.87795 8.364 10.2699 8.784 10.5313 9.316L9.60728 9.61C9.40195 9.23667 9.11261 8.94733 8.73928 8.742C8.37528 8.52733 7.96928 8.42 7.52128 8.42C7.02661 8.42 6.57861 8.546 6.17728 8.798C5.78528 9.05 5.46795 9.4 5.22528 9.848C4.99195 10.2867 4.87528 10.7813 4.87528 11.332C4.87528 11.8827 4.99661 12.382 5.23928 12.83C5.48195 13.278 5.80395 13.6373 6.20528 13.908C6.60661 14.1693 7.04995 14.3 7.53528 14.3C7.85261 14.3 8.16061 14.244 8.45928 14.132C8.75795 14.02 9.01461 13.8707 9.22928 13.684C9.44395 13.488 9.58861 13.278 9.66328 13.054L10.6013 13.334C10.4706 13.6793 10.2559 13.992 9.95728 14.272C9.65861 14.5427 9.30395 14.7573 8.89328 14.916C8.48261 15.0653 8.04395 15.14 7.57728 15.14ZM15.1365 15.14C14.4365 15.14 13.8112 14.9673 13.2605 14.622C12.7192 14.2767 12.2945 13.8193 11.9865 13.25C11.6785 12.6713 11.5245 12.046 11.5245 11.374C11.5245 10.6927 11.6785 10.0673 11.9865 9.498C12.3038 8.91933 12.7332 8.45733 13.2745 8.112C13.8252 7.75733 14.4458 7.58 15.1365 7.58C15.8365 7.58 16.4572 7.75733 16.9985 8.112C17.5492 8.45733 17.9785 8.91933 18.2865 9.498C18.6038 10.0673 18.7625 10.6927 18.7625 11.374C18.7625 12.046 18.6085 12.6713 18.3005 13.25C17.9925 13.8193 17.5632 14.2767 17.0125 14.622C16.4712 14.9673 15.8458 15.14 15.1365 15.14ZM12.4905 11.388C12.4905 11.9293 12.6072 12.424 12.8405 12.872C13.0832 13.3107 13.4052 13.6607 13.8065 13.922C14.2078 14.174 14.6512 14.3 15.1365 14.3C15.6218 14.3 16.0652 14.1693 16.4665 13.908C16.8678 13.6467 17.1898 13.292 17.4325 12.844C17.6752 12.396 17.7965 11.9013 17.7965 11.36C17.7965 10.8187 17.6752 10.324 17.4325 9.876C17.1898 9.428 16.8678 9.07333 16.4665 8.812C16.0652 8.55067 15.6218 8.42 15.1365 8.42C14.6605 8.42 14.2218 8.55533 13.8205 8.826C13.4192 9.08733 13.0972 9.442 12.8545 9.89C12.6118 10.338 12.4905 10.8373 12.4905 11.388ZM26.4867 15H25.5347V10.926C25.5347 10.0673 25.404 9.442 25.1427 9.05C24.8907 8.64867 24.4987 8.448 23.9667 8.448C23.5934 8.448 23.2247 8.54133 22.8607 8.728C22.4967 8.90533 22.1747 9.15267 21.8947 9.47C21.624 9.778 21.428 10.1327 21.3067 10.534V15H20.3547V7.706H21.2227V9.358C21.512 8.826 21.9367 8.39667 22.4967 8.07C23.0567 7.74333 23.6634 7.58 24.3167 7.58C24.858 7.58 25.2874 7.71067 25.6047 7.972C25.922 8.224 26.146 8.588 26.2767 9.064C26.4167 9.53067 26.4867 10.086 26.4867 10.73V15ZM30.9108 15.14C30.3135 15.14 29.7581 15.042 29.2448 14.846C28.7408 14.6407 28.2975 14.342 27.9148 13.95L28.3068 13.278C28.7175 13.6607 29.1281 13.9407 29.5388 14.118C29.9588 14.286 30.4021 14.37 30.8688 14.37C31.4288 14.37 31.8861 14.258 32.2408 14.034C32.6048 13.8007 32.7868 13.4693 32.7868 13.04C32.7868 12.7507 32.6981 12.5313 32.5208 12.382C32.3528 12.2233 32.1055 12.0973 31.7788 12.004C31.4615 11.9107 31.0788 11.8033 30.6308 11.682C30.1268 11.542 29.7021 11.3973 29.3568 11.248C29.0208 11.0893 28.7641 10.8933 28.5868 10.66C28.4188 10.4173 28.3348 10.1047 28.3348 9.722C28.3348 9.25533 28.4515 8.86333 28.6848 8.546C28.9275 8.22867 29.2541 7.99067 29.6648 7.832C30.0848 7.664 30.5515 7.58 31.0648 7.58C31.6248 7.58 32.1195 7.66867 32.5488 7.846C32.9781 8.02333 33.3281 8.27067 33.5988 8.588L33.1368 9.232C32.8848 8.93333 32.5721 8.714 32.1988 8.574C31.8348 8.42467 31.4381 8.35 31.0088 8.35C30.7101 8.35 30.4255 8.392 30.1548 8.476C29.8841 8.55067 29.6601 8.68133 29.4828 8.868C29.3148 9.04533 29.2308 9.29267 29.2308 9.61C29.2308 10.002 29.3755 10.2727 29.6648 10.422C29.9541 10.5713 30.3928 10.73 30.9808 10.898C31.5315 11.0473 32.0121 11.1967 32.4228 11.346C32.8335 11.4953 33.1508 11.696 33.3748 11.948C33.5988 12.1907 33.7108 12.5313 33.7108 12.97C33.7108 13.6513 33.4541 14.1833 32.9408 14.566C32.4275 14.9487 31.7508 15.14 30.9108 15.14Z" fill="#3B3B4D"/>
</svg>
