<svg width="55" height="22" fill="none" xmlns="http://www.w3.org/2000/svg"><g clip-path="url(#clip0)"><path d="M10.399 2.836c-.635.743-1.65 1.33-2.666 1.246-.127-1.005.37-2.072.952-2.732C9.32.586 10.43.042 11.33 0c.106 1.047-.306 2.072-.93 2.836zm.92 1.445c-1.47-.084-2.729.827-3.427.827-.709 0-1.777-.785-2.94-.765-1.513.021-2.92.87-3.692 2.22-1.586 2.7-.412 6.698 1.121 8.896.751 1.088 1.65 2.281 2.835 2.24 1.121-.043 1.565-.723 2.92-.723 1.364 0 1.755.722 2.94.701 1.226-.02 1.999-1.088 2.75-2.176.856-1.236 1.205-2.44 1.226-2.502-.02-.02-2.369-.91-2.39-3.59-.021-2.24 1.851-3.307 1.936-3.37-1.058-1.549-2.708-1.716-3.28-1.758zm8.493-3.036v16.317h2.56v-5.578h3.543c3.237 0 5.51-2.198 5.51-5.38S29.195 1.245 26 1.245h-6.188zm2.56 2.136h2.95c2.222 0 3.491 1.172 3.491 3.234 0 2.062-1.27 3.244-3.5 3.244h-2.941V3.381zM36.1 17.688c1.607 0 3.099-.806 3.776-2.083h.052v1.957h2.37V9.441c0-2.355-1.904-3.873-4.834-3.873-2.718 0-4.728 1.539-4.802 3.653h2.306c.19-1.005 1.132-1.664 2.422-1.664 1.565 0 2.443.722 2.443 2.051v.9l-3.194.189c-2.972.177-4.58 1.381-4.58 3.474 0 2.114 1.66 3.517 4.04 3.517zm.687-1.936c-1.364 0-2.232-.65-2.232-1.644 0-1.025.836-1.622 2.433-1.716l2.845-.178v.921c0 1.528-1.311 2.617-3.046 2.617zM45.461 22c2.496 0 3.67-.942 4.696-3.8l4.496-12.475H52.05l-3.015 9.64h-.053l-3.014-9.64h-2.676l4.337 11.88-.233.721c-.392 1.225-1.026 1.696-2.158 1.696-.2 0-.592-.021-.75-.042v1.957c.147.042.782.063.972.063z" fill="#86909D"/></g><defs><clipPath id="clip0"><path fill="#fff" transform="translate(.499)" d="M0 0h54.154v22H0z"/></clipPath></defs></svg>